<svg xmlns="http://www.w3.org/2000/svg" viewBox="0 0 38 50"><defs><style>.cls-1{fill:#fff;opacity:0.75;}.cls-2{fill:#333;}</style></defs><title>marker-user</title><g id="user"><circle class="cls-1" cx="19" cy="19" r="13"/><path class="cls-2" d="M19,.5A18.52,18.52,0,0,0,.5,19a25.24,25.24,0,0,0,4,12.74C9.45,39.67,17.27,47.58,19,49.3c1.73-1.71,9.54-9.62,14.46-17.56A25.24,25.24,0,0,0,37.5,19,18.52,18.52,0,0,0,19,.5Zm7.31,29.25a8,8,0,0,0-14.62,0,13,13,0,1,1,14.62,0Z"/><circle class="cls-2" cx="19" cy="19" r="4"/></g></svg>