<svg xmlns="http://www.w3.org/2000/svg" viewBox="0 0 38 50"><defs><style>.cls-1{fill:#333;}.cls-2{fill:#fff;opacity:0.75;}</style></defs><title>marker-default</title><g id="default"><path class="cls-1" d="M19,.5A18.52,18.52,0,0,0,.5,19a25.24,25.24,0,0,0,4,12.74C9.45,39.67,17.27,47.58,19,49.3c1.73-1.71,9.54-9.62,14.46-17.56A25.27,25.27,0,0,0,37.5,19,18.52,18.52,0,0,0,19,.5ZM32.19,30.94C28,37.67,21.7,44.41,19,47.17c-2.7-2.76-9-9.5-13.19-16.23A23.71,23.71,0,0,1,2,19a17,17,0,0,1,34,0A23.71,23.71,0,0,1,32.19,30.94Z"/><path class="cls-2" d="M36,19a23.71,23.71,0,0,1-3.81,11.94C28,37.67,21.7,44.41,19,47.17c-2.7-2.76-9-9.5-13.19-16.23A23.71,23.71,0,0,1,2,19a17,17,0,0,1,34,0Z"/><circle class="cls-1" cx="19" cy="19" r="13"/></g></svg>